<svg width="268" height="48" viewBox="0 0 268 48" fill="none" xmlns="http://www.w3.org/2000/svg">
<path d="M17.432 36.624C15.096 36.624 12.92 36.168 10.904 35.256C8.904 34.344 7.16 33.088 5.672 31.488C4.184 29.872 3.016 28.016 2.168 25.92C1.336 23.808 0.92 21.552 0.92 19.152C0.92 16.624 1.368 14.304 2.264 12.192C3.176 10.08 4.416 8.248 5.984 6.696C7.552 5.144 9.328 3.944 11.312 3.096C13.312 2.248 15.392 1.824 17.552 1.824C19.968 1.824 22.312 2.392 24.584 3.528C26.872 4.648 28.888 6.384 30.632 8.736L25.4 11.544C24.328 10.232 23.096 9.256 21.704 8.616C20.328 7.96 18.92 7.632 17.48 7.632C16.072 7.632 14.72 7.92 13.424 8.496C12.144 9.072 11 9.888 9.992 10.944C9 11.984 8.216 13.216 7.64 14.64C7.064 16.048 6.776 17.592 6.776 19.272C6.776 20.856 7.056 22.352 7.616 23.76C8.176 25.152 8.944 26.376 9.92 27.432C10.912 28.472 12.056 29.288 13.352 29.88C14.648 30.472 16.04 30.768 17.528 30.768C18.52 30.768 19.488 30.616 20.432 30.312C21.392 29.992 22.288 29.536 23.12 28.944C23.968 28.352 24.72 27.632 25.376 26.784C26.048 25.936 26.608 24.976 27.056 23.904H20.936V18.792H33.944C34.008 21.24 33.624 23.536 32.792 25.68C31.96 27.824 30.784 29.72 29.264 31.368C27.744 33.016 25.976 34.304 23.96 35.232C21.944 36.16 19.768 36.624 17.432 36.624ZM56.1166 12H61.9726V36H56.1166L55.8526 33.024C55.1966 34.096 54.3246 34.968 53.2366 35.64C52.1646 36.296 50.8926 36.624 49.4206 36.624C47.6446 36.624 45.9806 36.288 44.4286 35.616C42.8766 34.944 41.5086 34.016 40.3246 32.832C39.1566 31.648 38.2366 30.28 37.5646 28.728C36.9086 27.176 36.5806 25.512 36.5806 23.736C36.5806 22.024 36.8926 20.416 37.5166 18.912C38.1566 17.408 39.0446 16.088 40.1806 14.952C41.3166 13.816 42.6286 12.928 44.1166 12.288C45.6046 11.648 47.2046 11.328 48.9166 11.328C50.5006 11.328 51.9166 11.68 53.1646 12.384C54.4286 13.088 55.5006 13.984 56.3806 15.072L56.1166 12ZM49.2766 30.984C50.5246 30.984 51.6286 30.672 52.5886 30.048C53.5486 29.424 54.3006 28.584 54.8446 27.528C55.3886 26.456 55.6606 25.28 55.6606 24C55.6606 22.704 55.3886 21.528 54.8446 20.472C54.3006 19.4 53.5406 18.552 52.5646 17.928C51.6046 17.304 50.5086 16.992 49.2766 16.992C48.0446 16.992 46.9166 17.312 45.8926 17.952C44.8846 18.576 44.0766 19.416 43.4686 20.472C42.8766 21.528 42.5806 22.704 42.5806 24C42.5806 25.296 42.8846 26.472 43.4926 27.528C44.1006 28.584 44.9086 29.424 45.9166 30.048C46.9406 30.672 48.0606 30.984 49.2766 30.984ZM66.8956 36V-2.86102e-06H72.7516V36H66.8956ZM96.2416 12H102.098V36H96.2416L95.9776 33.024C95.3216 34.096 94.4496 34.968 93.3616 35.64C92.2896 36.296 91.0176 36.624 89.5456 36.624C87.7696 36.624 86.1056 36.288 84.5536 35.616C83.0016 34.944 81.6336 34.016 80.4496 32.832C79.2816 31.648 78.3616 30.28 77.6896 28.728C77.0336 27.176 76.7056 25.512 76.7056 23.736C76.7056 22.024 77.0176 20.416 77.6416 18.912C78.2816 17.408 79.1696 16.088 80.3056 14.952C81.4416 13.816 82.7536 12.928 84.2416 12.288C85.7296 11.648 87.3296 11.328 89.0416 11.328C90.6256 11.328 92.0416 11.68 93.2896 12.384C94.5536 13.088 95.6256 13.984 96.5056 15.072L96.2416 12ZM89.4016 30.984C90.6496 30.984 91.7536 30.672 92.7136 30.048C93.6736 29.424 94.4256 28.584 94.9696 27.528C95.5136 26.456 95.7856 25.28 95.7856 24C95.7856 22.704 95.5136 21.528 94.9696 20.472C94.4256 19.4 93.6656 18.552 92.6896 17.928C91.7296 17.304 90.6336 16.992 89.4016 16.992C88.1696 16.992 87.0416 17.312 86.0176 17.952C85.0096 18.576 84.2016 19.416 83.5936 20.472C83.0016 21.528 82.7056 22.704 82.7056 24C82.7056 25.296 83.0096 26.472 83.6176 27.528C84.2256 28.584 85.0336 29.424 86.0416 30.048C87.0656 30.672 88.1856 30.984 89.4016 30.984ZM105.358 36L114.142 23.952L105.43 11.976H112.654L117.742 18.96L122.854 11.976H130.078L121.366 23.952L130.15 36H122.926L117.742 28.896L112.582 36H105.358ZM149.969 12H156.185L143.057 48H136.841L141.185 36L132.545 12H138.953L144.113 27.984L149.969 12ZM172.608 36H166.8L158.784 12H164.52L169.728 27.528L174.912 12H180.696L185.88 27.528L191.088 12H196.824L188.808 36H183L177.792 20.4L172.608 36ZM217.554 12H223.41V36H217.554L217.29 33.024C216.634 34.096 215.762 34.968 214.674 35.64C213.602 36.296 212.33 36.624 210.858 36.624C209.082 36.624 207.418 36.288 205.866 35.616C204.314 34.944 202.946 34.016 201.762 32.832C200.594 31.648 199.674 30.28 199.002 28.728C198.346 27.176 198.018 25.512 198.018 23.736C198.018 22.024 198.33 20.416 198.954 18.912C199.594 17.408 200.482 16.088 201.618 14.952C202.754 13.816 204.066 12.928 205.554 12.288C207.042 11.648 208.642 11.328 210.354 11.328C211.938 11.328 213.354 11.68 214.602 12.384C215.866 13.088 216.938 13.984 217.818 15.072L217.554 12ZM210.714 30.984C211.962 30.984 213.066 30.672 214.026 30.048C214.986 29.424 215.738 28.584 216.282 27.528C216.826 26.456 217.098 25.28 217.098 24C217.098 22.704 216.826 21.528 216.282 20.472C215.738 19.4 214.978 18.552 214.002 17.928C213.042 17.304 211.946 16.992 210.714 16.992C209.482 16.992 208.354 17.312 207.33 17.952C206.322 18.576 205.514 19.416 204.906 20.472C204.314 21.528 204.018 22.704 204.018 24C204.018 25.296 204.322 26.472 204.93 27.528C205.538 28.584 206.346 29.424 207.354 30.048C208.378 30.672 209.498 30.984 210.714 30.984ZM228.217 36L228.193 12H234.049L234.073 14.136C234.889 13.272 235.865 12.592 237.001 12.096C238.137 11.584 239.361 11.328 240.673 11.328C241.553 11.328 242.433 11.456 243.313 11.712L241.009 17.616C240.401 17.376 239.793 17.256 239.185 17.256C238.241 17.256 237.377 17.488 236.593 17.952C235.825 18.4 235.209 19.016 234.745 19.8C234.297 20.568 234.073 21.424 234.073 22.368V36H228.217ZM255.44 36.624C253.232 36.624 251.216 36.056 249.392 34.92C247.584 33.784 246.136 32.256 245.048 30.336C243.976 28.416 243.44 26.296 243.44 23.976C243.44 22.232 243.752 20.6 244.376 19.08C245 17.544 245.856 16.2 246.944 15.048C248.048 13.88 249.328 12.968 250.784 12.312C252.24 11.656 253.792 11.328 255.44 11.328C257.312 11.328 259.024 11.728 260.576 12.528C262.144 13.312 263.472 14.392 264.56 15.768C265.648 17.144 266.44 18.712 266.936 20.472C267.432 22.232 267.544 24.072 267.272 25.992H249.728C249.952 26.888 250.32 27.696 250.832 28.416C251.344 29.12 251.992 29.688 252.776 30.12C253.56 30.536 254.448 30.752 255.44 30.768C256.464 30.784 257.392 30.544 258.224 30.048C259.072 29.536 259.776 28.848 260.336 27.984L266.312 29.376C265.336 31.504 263.88 33.248 261.944 34.608C260.008 35.952 257.84 36.624 255.44 36.624ZM249.536 21.6H261.344C261.168 20.64 260.792 19.776 260.216 19.008C259.656 18.224 258.96 17.6 258.128 17.136C257.296 16.672 256.4 16.44 255.44 16.44C254.48 16.44 253.592 16.672 252.776 17.136C251.96 17.584 251.264 18.2 250.688 18.984C250.128 19.752 249.744 20.624 249.536 21.6Z" fill="#010101"/>
</svg>
